<?xml version="1.0" encoding="utf-8"?>
<!-- Generator: Adobe Illustrator 18.0.0, SVG Export Plug-In . SVG Version: 6.00 Build 0)  -->
<!DOCTYPE svg PUBLIC "-//W3C//DTD SVG 1.1//EN" "http://www.w3.org/Graphics/SVG/1.1/DTD/svg11.dtd">
<svg version="1.1" id="Capa_1" xmlns="http://www.w3.org/2000/svg" xmlns:xlink="http://www.w3.org/1999/xlink" x="0px" y="0px"
	 viewBox="0 0 600 600" enable-background="new 0 0 600 600" xml:space="preserve">
<path fill="#3F51B5" d="M238.8,600h105c3.8,0,6.2-1.2,8.8-3.8c2.5-2.5,3.8-5,3.8-8.8v-250h75c6.2,0,11.3-5,12.5-11.2l13.7-102.5
	c0-3.7-1.2-7.5-2.5-10c-2.5-2.5-6.2-3.8-10-3.8h-88.8v-52.5c0-26.2,5-37.5,37.5-37.5h53.8c7.5,0,12.5-6.2,12.5-12.5V16.2
	c0-6.3-5-11.2-11.3-12.5C442.5,2.5,411.3,0,370,0c-88.8,0-143.8,56.2-143.8,147.5V210H150c-7.5,0-12.5,6.2-12.5,12.5V325
	c0,7.5,6.2,12.5,12.5,12.5h76.2v250C226.2,593.8,232.5,600,238.8,600z"/>
</svg>
