<?xml version="1.0" encoding="utf-8"?>
<!-- Generator: Adobe Illustrator 18.0.0, SVG Export Plug-In . SVG Version: 6.00 Build 0)  -->
<!DOCTYPE svg PUBLIC "-//W3C//DTD SVG 1.1//EN" "http://www.w3.org/Graphics/SVG/1.1/DTD/svg11.dtd">
<svg version="1.1" id="Capa_1" xmlns="http://www.w3.org/2000/svg" xmlns:xlink="http://www.w3.org/1999/xlink" x="0px" y="0px"
	 viewBox="0 0 48 48" enable-background="new 0 0 48 48" xml:space="preserve">
<path fill="#EDD9D3" d="M36.9,46.9H10.7c-5.4,0-9.8-4.4-9.8-9.8V15.8l23.2-4l22.8,4V37C46.8,42.4,42.4,46.9,36.9,46.9z"/>
<path fill="#795548" d="M37.3,16.5l-13.7-4.9l-11.7,4.9C4.3,16.5,0,17.1,0,14.2v-2C0,4.9,4.3,0,10.6,0h27.6C42.9,0,48,4.5,48,11.8
	V14C48,17.6,43.3,16.5,37.3,16.5z"/>
<g>
	<path fill="#2C1F1B" d="M38.2,0H10.6C4.3,0,0,4.9,0,12.1v24.9C0,44,4.3,48,11.9,48h25.4c6,0,10.7-4.9,10.7-11.1V11.8
		C48,4.5,42.9,0,38.2,0z M4.6,4.5V12c0,0.6,0.4,1,1,1s1-0.4,1-1V3c0,0,0,0,0-0.1C7,2.7,7.5,2.5,8,2.4V12c0,0.6,0.4,1,1,1s1-0.4,1-1
		V2.2c0-0.1,0-0.1,0-0.2c0.2,0,0.5,0,0.7,0h0.8c0,0.1-0.1,0.2-0.1,0.2V12c0,0.6,0.4,1,1,1s1-0.4,1-1V2.2c0-0.1,0-0.2-0.1-0.2h24.9
		C42,2,46,5.8,46,11.8v3.1H33.1c-2.2-2.5-5.5-4.2-9.1-4.2c-3.7,0-7,1.7-9.2,4.3v-0.1H2v-2.8C2,9.4,2.7,6.5,4.6,4.5z M24,12.8
		c5.6,0,10.2,4.6,10.2,10.2S29.6,33.1,24,33.1c-5.6,0-10.2-4.6-10.2-10.2S18.4,12.8,24,12.8z M37.3,46H11.9C7.4,46,2,44.4,2,37.1
		v-20h11.3c-1,1.7-1.5,3.7-1.5,5.9c0,6.7,5.5,12.2,12.2,12.2c6.7,0,12.2-5.5,12.2-12.2c0-2.1-0.5-4.1-1.5-5.8H46v19.8
		C46,42.1,42.3,46,37.3,46z"/>
	<path fill="#2C1F1B" d="M24,30.6c4.2,0,7.7-3.4,7.7-7.7c0-4.2-3.4-7.7-7.7-7.7c-4.2,0-7.7,3.4-7.7,7.7C16.3,27.2,19.8,30.6,24,30.6
		z M24,19.1c2.1,0,3.8,1.7,3.8,3.8s-1.7,3.8-3.8,3.8s-3.8-1.7-3.8-3.8S21.9,19.1,24,19.1z"/>
	<path fill="#2C1F1B" d="M35.9,12.3h3.3c1.2,0,2.2-1,2.2-2.2V6.9c0-1.2-1-2.2-2.2-2.2h-3.3c-1.2,0-2.2,1-2.2,2.2v3.3
		C33.7,11.3,34.7,12.3,35.9,12.3z"/>
</g>
</svg>
