<?xml version="1.0" encoding="utf-8"?>
<!-- Generator: Adobe Illustrator 18.0.0, SVG Export Plug-In . SVG Version: 6.00 Build 0)  -->
<!DOCTYPE svg PUBLIC "-//W3C//DTD SVG 1.1//EN" "http://www.w3.org/Graphics/SVG/1.1/DTD/svg11.dtd">
<svg version="1.1" id="Capa_1" xmlns="http://www.w3.org/2000/svg" xmlns:xlink="http://www.w3.org/1999/xlink" x="0px" y="0px"
	 viewBox="0 0 600 600" enable-background="new 0 0 600 600" xml:space="preserve">
<g>
	<path fill="#2196F3" d="M282.5,117.5L282.5,117.5c-46.2,0-62.5,5-72.5,10l0,0l0,0c-6.2,3.8-12.5,8.8-17.5,13.8l0,0l0,0
		c-8.8,10-11.2,21.2-7.5,31.2c3.8,8.8,11.2,15,21.3,16.2c3.7,1.3,6.2,1.3,7.5,2.5l0,0l0,0c0,0,1.3,2.5,1.3,7.5
		c1.2,5,1.2,11.3,2.5,17.5c1.3,12.5,1.3,23.8,0,32.5c0,3.8-1.2,8.8-1.2,11.2c-2.5-2.5-5-6.2-7.5-11.2c-5-7.5-10-17.5-15-27.5l0,0
		l0,0l-6.3-8.8c-2.5-5-6.2-12.5-11.2-22.5c-5-10-8.8-18.8-12.5-27.5s-8.8-15-16.2-20h-1.2H145l0,0c-2.5-1.3-5-3.8-8.8-5
		s-7.5-2.5-12.5-3.8h-2.5h-2.5H40c-16.2,0-27.5,5-36.2,15v1.2v1.2l-1.2,1.3l0,0l0,0c-1.2,3.7-2.5,10-2.5,16.2c0,5,1.2,10,3.8,16.2
		l0,0l0,0c11.3,27.5,25,55,38.8,80s26.2,46.3,36.2,62.5c10,16.2,21.2,31.2,31.2,45c13.8,18.8,18.8,25,21.2,27.5
		c3.8,3.8,6.2,7.5,8.8,10l7.5,7.5c5,5,12.5,11.3,22.5,18.8c10,6.2,20,13.7,31.2,20c12.5,7.5,27.5,13.8,43.8,17.5
		c13.8,3.8,27.5,6.2,41.2,6.2c2.5,0,5,0,7.5,0h32.5h1.2h1.2c16.2-1.2,26.3-8.8,31.2-13.7l1.3-1.2l1.2-1.2v-1.2v-1.2V460
		c2.5-3.8,3.7-7.5,5-12.5c1.2-5,2.5-10,2.5-15c0-6.2,0-12.5,1.2-17.5c0-1.2,1.2-3.8,1.2-3.8c2.5,2.5,5,5,7.5,7.5
		c6.2,7.5,12.5,15,20,23.8c8.8,10,16.2,16.2,23.8,21.2h1.2h1.2l6.2,3.8c5,3.8,12.5,6.2,20,8.8c6.2,2.5,12.5,2.5,18.8,2.5
		c2.5,0,5,0,7.5,0l71.2-1.2l0,0c11.3,0,21.2-2.5,28.8-7.5c12.5-7.5,16.2-16.2,18.8-22.5c1.2-6.2,2.5-13.7,0-21.2
		c-1.2-6.2-2.5-10-3.8-13.7c-1.2-2.5-2.5-3.8-2.5-5c-11.2-20-30-42.5-58.8-68.8l0,0l0,0l0,0l-7.5-5l0,0
		c-8.8-8.8-12.5-12.5-13.7-13.8c1.2-3.8,6.2-11.2,21.2-30c7.5-10,13.8-18.8,18.8-25c47.5-63.8,53.8-88.8,46.3-107.5l-1.2-2.5
		l-1.2-2.5l-1.3-2.5l0,0l0,0c-6.2-8.8-16.2-12.5-22.5-15c-5-1.2-11.2-2.5-17.5-2.5c-2.5,0-6.2,0-10,0H465c-1.2,0-2.5,0-5,0
		c-2.5,0-6.2,0-8.8,1.3l-3.7,1.2l-2.5,1.2l-2.5,1.2h-1.2l-2.5,1.2l-1.3,1.2l0,0c-2.5,2.5-6.2,5-8.8,7.5c-2.5,3.8-5,7.5-6.2,11.2
		c-8.8,22.5-18.8,42.5-28.8,61.2c-6.2,11.2-12.5,21.3-18.8,28.8c-1.2,1.2-2.5,2.5-2.5,5c0-1.2,0-1.2,0-2.5c0-6.2,0-10,0-12.5
		c0-7.5,0-15,0-22.5c0-8.8,0-15,1.2-20c0-5,0-11.2,0-16.2c0-7.5,0-13.8-1.2-18.8s-2.5-10-5-13.8c-3.8-7.5-8.8-13.8-15-17.5
		c-5-2.5-10-5-16.2-7.5c-12.5-2.5-26.2-3.8-45-5C287.5,118.8,285,117.5,282.5,117.5L282.5,117.5L282.5,117.5z"/>
</g>
</svg>
