<?xml version="1.0" encoding="utf-8"?>
<!-- Generator: Adobe Illustrator 19.2.1, SVG Export Plug-In . SVG Version: 6.00 Build 0)  -->
<svg version="1.1" id="Capa_1" xmlns="http://www.w3.org/2000/svg" xmlns:xlink="http://www.w3.org/1999/xlink" x="0px" y="0px"
	 viewBox="0 0 48 48" style="enable-background:new 0 0 48 48;" xml:space="preserve">
<path d="M19.1,48h8.4c0.3,0,0.5-0.1,0.7-0.3c0.2-0.2,0.3-0.4,0.3-0.7V27h6c0.5,0,0.9-0.4,1-0.9l1.1-8.2c0-0.3-0.1-0.6-0.2-0.8
	c-0.2-0.2-0.5-0.3-0.8-0.3h-7.1v-4.2c0-2.1,0.4-3,3-3l4.3,0c0.6,0,1-0.5,1-1V1.3c0-0.5-0.4-0.9-0.9-1C35.4,0.2,32.9,0,29.6,0
	c-7.1,0-11.5,4.5-11.5,11.8v5h-6.1c-0.6,0-1,0.5-1,1V26c0,0.6,0.5,1,1,1h6.1v20C18.1,47.5,18.6,48,19.1,48z M13.1,25v-6.2h6.1
	c0.6,0,1-0.5,1-1v-6c0-6.1,3.6-9.8,9.5-9.8c2.4,0,4.4,0.1,5.2,0.2l0.1,0v5.4l-3.3,0c-4.5,0-5.1,2.8-5.1,5v5.2c0,0.6,0.5,1,1,1h7
	L33.7,25h-6.2c-0.6,0-1,0.5-1,1v20h-6.4V26c0-0.6-0.5-1-1-1H13.1z"/>
</svg>
