<?xml version="1.0" encoding="utf-8"?>
<!-- Generator: Adobe Illustrator 19.2.1, SVG Export Plug-In . SVG Version: 6.00 Build 0)  -->
<svg version="1.1" id="Capa_1" xmlns="http://www.w3.org/2000/svg" xmlns:xlink="http://www.w3.org/1999/xlink" x="0px" y="0px"
	 viewBox="0 0 48 48" style="enable-background:new 0 0 48 48;" xml:space="preserve">
<style type="text/css">
	.st0{fill:#FFFFFF;}
</style>
<g>
	<path class="st0" d="M22.6,9.4L22.6,9.4c-3.7,0-5,0.4-5.8,0.8l0,0l0,0c-0.5,0.3-1,0.7-1.4,1.1l0,0l0,0c-0.7,0.8-0.9,1.7-0.6,2.5
		c0.3,0.7,0.9,1.2,1.7,1.3c0.3,0.1,0.5,0.1,0.6,0.2l0,0l0,0c0,0,0.1,0.2,0.1,0.6c0.1,0.4,0.1,0.9,0.2,1.4c0.1,1,0.1,1.9,0,2.6
		c0,0.3-0.1,0.7-0.1,0.9c-0.2-0.2-0.4-0.5-0.6-0.9c-0.4-0.6-0.8-1.4-1.2-2.2l0,0l0,0L15,17c-0.2-0.4-0.5-1-0.9-1.8
		c-0.4-0.8-0.7-1.5-1-2.2s-0.7-1.2-1.3-1.6h-0.1h-0.1l0,0c-0.2-0.1-0.4-0.3-0.7-0.4c-0.3-0.1-0.6-0.2-1-0.3H9.7H9.5H3.2
		c-1.3,0-2.2,0.4-2.9,1.2V12v0.1l-0.1,0.1l0,0l0,0C0.1,12.5,0,13,0,13.5c0,0.4,0.1,0.8,0.3,1.3l0,0l0,0c0.9,2.2,2,4.4,3.1,6.4
		s2.1,3.7,2.9,5s1.7,2.5,2.5,3.6c1.1,1.5,1.5,2,1.7,2.2c0.3,0.3,0.5,0.6,0.7,0.8l0.6,0.6c0.4,0.4,1,0.9,1.8,1.5
		c0.8,0.5,1.6,1.1,2.5,1.6c1,0.6,2.2,1.1,3.5,1.4c1.1,0.3,2.2,0.5,3.3,0.5c0.2,0,0.4,0,0.6,0h2.6h0.1h0.1c1.3-0.1,2.1-0.7,2.5-1.1
		l0.1-0.1l0.1-0.1l0-0.1v-0.1v-0.1c0.2-0.3,0.3-0.6,0.4-1s0.2-0.8,0.2-1.2c0-0.5,0-1,0.1-1.4c0-0.1,0.1-0.3,0.1-0.3
		c0.2,0.2,0.4,0.4,0.6,0.6c0.5,0.6,1,1.2,1.6,1.9c0.7,0.8,1.3,1.3,1.9,1.7H34h0.1l0.5,0.3c0.4,0.3,1,0.5,1.6,0.7
		c0.5,0.2,1,0.2,1.5,0.2c0.2,0,0.4,0,0.6,0l5.7-0.1l0,0c0.9,0,1.7-0.2,2.3-0.6c1-0.6,1.3-1.3,1.5-1.8c0.1-0.5,0.2-1.1,0-1.7
		c-0.1-0.5-0.2-0.8-0.3-1.1c-0.1-0.2-0.2-0.3-0.2-0.4c-0.9-1.6-2.4-3.4-4.7-5.5l0,0l0,0l0,0L42,26.7l0,0c-0.7-0.7-1-1-1.1-1.1
		c0.1-0.3,0.5-0.9,1.7-2.4c0.6-0.8,1.1-1.5,1.5-2c3.8-5.1,4.3-7.1,3.7-8.6l-0.1-0.2l-0.1-0.2L47.5,12l0,0l0,0
		c-0.5-0.7-1.3-1-1.8-1.2c-0.4-0.1-0.9-0.2-1.4-0.2c-0.2,0-0.5,0-0.8,0h-6.3c-0.1,0-0.2,0-0.4,0s-0.5,0-0.7,0.1l-0.3,0.1l-0.2,0.1
		L35.4,11l-0.1,0l-0.2,0.1L35,11.2l0,0c-0.2,0.2-0.5,0.4-0.7,0.6c-0.2,0.3-0.4,0.6-0.5,0.9c-0.7,1.8-1.5,3.4-2.3,4.9
		c-0.5,0.9-1,1.7-1.5,2.3c-0.1,0.1-0.2,0.2-0.2,0.4c0-0.1,0-0.1,0-0.2c0-0.5,0-0.8,0-1c0-0.6,0-1.2,0-1.8c0-0.7,0-1.2,0.1-1.6
		c0-0.4,0-0.9,0-1.3c0-0.6,0-1.1-0.1-1.5s-0.2-0.8-0.4-1.1c-0.3-0.6-0.7-1.1-1.2-1.4c-0.4-0.2-0.8-0.4-1.3-0.6
		c-1-0.2-2.1-0.3-3.6-0.4C23,9.5,22.8,9.4,22.6,9.4L22.6,9.4L22.6,9.4z"/>
</g>
</svg>
