<?xml version="1.0" encoding="utf-8"?>
<!-- Generator: Adobe Illustrator 19.2.1, SVG Export Plug-In . SVG Version: 6.00 Build 0)  -->
<svg version="1.1" id="Capa_1" xmlns="http://www.w3.org/2000/svg" xmlns:xlink="http://www.w3.org/1999/xlink" x="0px" y="0px"
	 viewBox="0 0 48 48" style="enable-background:new 0 0 48 48;" xml:space="preserve">
<g>
	<path d="M32.6,24l-15.5-8.9v17.9L32.6,24z M19.1,18.5l9.5,5.5l-0.1,0.1l-9.4,5.4V18.5z"/>
	<path d="M38.4,6.4H9.6C4.3,6.4,0,10.7,0,16v16c0,5.3,4.3,9.6,9.6,9.6h28.9c5.3,0,9.6-4.3,9.6-9.6V16C48,10.7,43.7,6.4,38.4,6.4z
		 M46,32c0,4.2-3.4,7.6-7.6,7.6H9.6C5.4,39.6,2,36.2,2,32V16c0-4.2,3.4-7.6,7.6-7.6h28.9c4.2,0,7.6,3.4,7.6,7.6V32z"/>
</g>
</svg>
